<svg width="162" height="28" viewBox="0 0 162 28" fill="none" xmlns="http://www.w3.org/2000/svg">
<path d="M47.0938 18.1289C46.4349 18.1289 45.8709 17.9463 45.4019 17.5811C44.9328 17.2158 44.6392 16.7288 44.521 16.1201H45.5039C45.6077 16.471 45.8047 16.7539 46.0947 16.9688C46.3848 17.18 46.7214 17.2856 47.1045 17.2856C47.749 17.2856 48.2485 17.0063 48.603 16.4478C48.9611 15.8856 49.1473 15.0889 49.1616 14.0576H49.1562H49.1455C48.9808 14.4408 48.7015 14.7487 48.3076 14.9814C47.9173 15.2106 47.4751 15.3252 46.981 15.3252C46.2433 15.3252 45.6292 15.0817 45.1387 14.5947C44.6517 14.1077 44.4082 13.4972 44.4082 12.7632C44.4082 11.9969 44.666 11.3649 45.1816 10.8672C45.7008 10.3659 46.3579 10.1152 47.1528 10.1152C47.7365 10.1152 48.2503 10.2674 48.6943 10.5718C49.1383 10.8726 49.4785 11.3005 49.7148 11.8555C49.9691 12.4427 50.0962 13.1553 50.0962 13.9932C50.0962 15.3001 49.833 16.3171 49.3066 17.0439C48.7803 17.7673 48.0426 18.1289 47.0938 18.1289ZM47.1475 14.4766C47.6595 14.4766 48.0856 14.3136 48.4258 13.9878C48.766 13.6619 48.936 13.252 48.936 12.7578C48.936 12.2601 48.7642 11.8411 48.4204 11.501C48.0802 11.1572 47.6613 10.9854 47.1636 10.9854C46.6659 10.9854 46.2451 11.1554 45.9014 11.4956C45.5576 11.8322 45.3857 12.244 45.3857 12.731C45.3857 13.2358 45.5522 13.653 45.8853 13.9824C46.2183 14.3118 46.639 14.4766 47.1475 14.4766ZM54.1458 18.1289C53.247 18.1289 52.5452 17.7708 52.0403 17.0547C51.539 16.335 51.2884 15.3574 51.2884 14.1221C51.2884 12.8975 51.5408 11.9253 52.0457 11.2056C52.5541 10.4823 53.2542 10.1206 54.1458 10.1206C55.0374 10.1206 55.7338 10.4805 56.2351 11.2002C56.74 11.9163 56.9925 12.8885 56.9925 14.1167C56.9925 15.3521 56.7418 16.3296 56.2405 17.0493C55.7392 17.769 55.041 18.1289 54.1458 18.1289ZM52.7547 16.437C53.0841 17.0028 53.5478 17.2856 54.1458 17.2856C54.7438 17.2856 55.2057 17.0046 55.5315 16.4424C55.8574 15.8766 56.0203 15.1032 56.0203 14.1221C56.0203 13.1553 55.8556 12.389 55.5262 11.8232C55.1967 11.2539 54.7366 10.9692 54.1458 10.9692C53.555 10.9692 53.093 11.2539 52.76 11.8232C52.427 12.3926 52.2605 13.1571 52.2605 14.1167C52.2605 15.0978 52.4252 15.8713 52.7547 16.437ZM61.8155 15.293H58.2921V14.4229H61.8155V15.293ZM65.3548 18.0967C64.6387 18.0967 64.0604 17.8335 63.62 17.3071C63.1831 16.7808 62.9647 16.0807 62.9647 15.207C62.9647 14.3369 63.1831 13.6387 63.62 13.1123C64.0568 12.5824 64.6279 12.3174 65.3333 12.3174C65.7272 12.3174 66.0799 12.4069 66.3914 12.5859C66.703 12.765 66.9429 13.0103 67.1112 13.3218H67.1327V10.2495H68.0672V18H67.1756V17.0547H67.1595C66.9769 17.3805 66.7298 17.6366 66.4183 17.8228C66.1068 18.0054 65.7523 18.0967 65.3548 18.0967ZM65.5321 13.1392C65.0379 13.1392 64.6458 13.3271 64.3558 13.7031C64.0658 14.0755 63.9207 14.5768 63.9207 15.207C63.9207 15.8408 64.0658 16.3439 64.3558 16.7163C64.6458 17.0887 65.0379 17.2749 65.5321 17.2749C66.0155 17.2749 66.404 17.0869 66.6976 16.7109C66.9912 16.3314 67.138 15.8301 67.138 15.207C67.138 14.584 66.9894 14.0845 66.6922 13.7085C66.3986 13.3289 66.0119 13.1392 65.5321 13.1392ZM71.3917 17.3018C71.8321 17.3018 72.201 17.1657 72.4982 16.8936C72.7989 16.6178 72.9493 16.2795 72.9493 15.8784V15.4219L71.4562 15.5132C71.0802 15.5382 70.7884 15.6296 70.5807 15.7871C70.3766 15.9447 70.2745 16.1559 70.2745 16.4209C70.2745 16.6859 70.3766 16.8989 70.5807 17.0601C70.7848 17.2212 71.0551 17.3018 71.3917 17.3018ZM71.1822 18.0967C70.6272 18.0967 70.1779 17.9427 69.8341 17.6348C69.4939 17.3268 69.3238 16.9222 69.3238 16.4209C69.3238 15.9411 69.4993 15.5579 69.8502 15.2715C70.2047 14.985 70.7042 14.8239 71.3487 14.7881L72.9493 14.6968V14.2295C72.9493 13.8893 72.8419 13.6226 72.6271 13.4292C72.4122 13.2358 72.1114 13.1392 71.7247 13.1392C71.3702 13.1392 71.082 13.2179 70.86 13.3755C70.638 13.5295 70.4965 13.7461 70.4357 14.0254H69.5333C69.5655 13.5277 69.7804 13.1195 70.1779 12.8008C70.5789 12.4785 71.1017 12.3174 71.7462 12.3174C72.4015 12.3174 72.9207 12.4821 73.3038 12.8115C73.6905 13.141 73.8839 13.5832 73.8839 14.1382V18H72.9977V17.0386H72.9762C72.8079 17.3573 72.5608 17.6133 72.235 17.8066C71.9091 18 71.5582 18.0967 71.1822 18.0967ZM75.7528 20.0894C75.5881 20.0894 75.4538 20.0786 75.35 20.0571V19.2729C75.4359 19.2909 75.5577 19.2998 75.7152 19.2998C75.9766 19.2998 76.1861 19.23 76.3437 19.0903C76.5012 18.9543 76.6337 18.7233 76.7411 18.3975L76.87 18.0054L74.8075 12.4141H75.8065L77.3534 17.0654H77.3695L78.9164 12.4141H79.8993L77.7025 18.3921C77.4626 19.0438 77.203 19.4896 76.9237 19.7295C76.648 19.9694 76.2577 20.0894 75.7528 20.0894ZM86.4087 18H83.4814V10.2495H86.4194C87.0818 10.2495 87.6171 10.4268 88.0254 10.7812C88.4371 11.1357 88.643 11.603 88.643 12.1831C88.643 12.5877 88.5123 12.9548 88.2509 13.2842C87.9931 13.61 87.678 13.807 87.3056 13.875V13.918C87.832 13.986 88.2509 14.1919 88.5625 14.5356C88.8776 14.8794 89.0351 15.3091 89.0351 15.8247C89.0351 16.5086 88.8024 17.0422 88.3369 17.4253C87.875 17.8084 87.2322 18 86.4087 18ZM84.4482 11.1035V13.5903H85.8984C86.4713 13.5903 86.9082 13.4793 87.2089 13.2573C87.5133 13.0353 87.6655 12.7148 87.6655 12.2959C87.6655 11.9128 87.5384 11.6191 87.2841 11.415C87.0299 11.2074 86.6683 11.1035 86.1992 11.1035H84.4482ZM84.4482 17.146H86.2636C86.8473 17.146 87.2895 17.0296 87.5903 16.7969C87.8911 16.5641 88.0415 16.224 88.0415 15.7764C88.0415 14.874 87.4184 14.4229 86.1723 14.4229H84.4482V17.146ZM94.7927 12.4141V18H93.9065V17.0923H93.885C93.5377 17.7619 92.9468 18.0967 92.1125 18.0967C91.5074 18.0967 91.0329 17.9141 90.6892 17.5488C90.349 17.18 90.1789 16.6769 90.1789 16.0396V12.4141H91.1135V15.873C91.1135 16.804 91.5432 17.2695 92.4026 17.2695C92.8537 17.2695 93.2082 17.1281 93.4661 16.8452C93.7274 16.5588 93.8581 16.1756 93.8581 15.6958V12.4141H94.7927ZM96.6885 20.0894C96.5238 20.0894 96.3895 20.0786 96.2857 20.0571V19.2729C96.3716 19.2909 96.4933 19.2998 96.6509 19.2998C96.9123 19.2998 97.1218 19.23 97.2793 19.0903C97.4369 18.9543 97.5694 18.7233 97.6768 18.3975L97.8057 18.0054L95.7432 12.4141H96.7422L98.2891 17.0654H98.3052L99.8521 12.4141H100.835L98.6382 18.3921C98.3983 19.0438 98.1387 19.4896 97.8594 19.7295C97.5837 19.9694 97.1934 20.0894 96.6885 20.0894ZM103.875 13.1284C103.442 13.1284 103.082 13.2788 102.795 13.5796C102.512 13.8768 102.357 14.2599 102.328 14.729H105.363C105.352 14.2563 105.21 13.8714 104.938 13.5742C104.666 13.277 104.312 13.1284 103.875 13.1284ZM105.341 16.3994H106.26C106.177 16.8936 105.919 17.3 105.486 17.6187C105.056 17.9373 104.539 18.0967 103.934 18.0967C103.135 18.0967 102.507 17.8389 102.049 17.3232C101.59 16.8076 101.361 16.1094 101.361 15.2285C101.361 14.3548 101.59 13.6512 102.049 13.1177C102.511 12.5841 103.125 12.3174 103.891 12.3174C104.643 12.3174 105.237 12.5698 105.674 13.0747C106.111 13.5796 106.329 14.2563 106.329 15.105V15.4595H102.323V15.5132C102.323 16.0503 102.469 16.48 102.763 16.8022C103.057 17.1245 103.454 17.2856 103.955 17.2856C104.306 17.2856 104.605 17.2051 104.852 17.0439C105.099 16.8828 105.262 16.668 105.341 16.3994ZM107.495 18V12.4141H108.376V13.3271H108.397C108.49 13.0156 108.657 12.7703 108.897 12.5913C109.14 12.4087 109.425 12.3174 109.751 12.3174C109.826 12.3174 109.951 12.3299 110.127 12.355V13.2627C110.026 13.2269 109.86 13.209 109.627 13.209C109.265 13.209 108.975 13.3289 108.757 13.5688C108.538 13.8088 108.429 14.1257 108.429 14.5195V18H107.495ZM113.73 10.2495H116.496C117.223 10.2495 117.818 10.4823 118.279 10.9478C118.745 11.4097 118.978 12.0059 118.978 12.7363C118.978 13.4704 118.745 14.0701 118.279 14.5356C117.814 15.0011 117.216 15.2339 116.485 15.2339H114.697V18H113.73V10.2495ZM114.697 11.1089V14.3745H116.244C116.795 14.3745 117.223 14.2313 117.527 13.9448C117.832 13.6548 117.984 13.252 117.984 12.7363C117.984 12.2207 117.832 11.8215 117.527 11.5386C117.227 11.2521 116.799 11.1089 116.244 11.1089H114.697ZM120.164 18V12.4141H121.045V13.3271H121.067C121.16 13.0156 121.326 12.7703 121.566 12.5913C121.81 12.4087 122.094 12.3174 122.42 12.3174C122.496 12.3174 122.621 12.3299 122.796 12.355V13.2627C122.696 13.2269 122.53 13.209 122.297 13.209C121.935 13.209 121.645 13.3289 121.427 13.5688C121.208 13.8088 121.099 14.1257 121.099 14.5195V18H120.164ZM125.825 18.0967C125.045 18.0967 124.418 17.8371 123.946 17.3179C123.473 16.7951 123.237 16.0915 123.237 15.207C123.237 14.3226 123.473 13.6208 123.946 13.1016C124.418 12.5788 125.045 12.3174 125.825 12.3174C126.602 12.3174 127.227 12.5788 127.7 13.1016C128.173 13.6208 128.409 14.3226 128.409 15.207C128.409 16.0879 128.173 16.7897 127.7 17.3125C127.227 17.8353 126.602 18.0967 125.825 18.0967ZM124.628 16.7271C124.925 17.0923 125.324 17.2749 125.825 17.2749C126.327 17.2749 126.724 17.0941 127.018 16.7324C127.311 16.3672 127.458 15.8587 127.458 15.207C127.458 14.5553 127.311 14.0487 127.018 13.687C126.724 13.3218 126.327 13.1392 125.825 13.1392C125.324 13.1392 124.925 13.3218 124.628 13.687C124.334 14.0522 124.187 14.5589 124.187 15.207C124.187 15.8551 124.334 16.3618 124.628 16.7271ZM129.875 11.0659H130.81V12.4141H131.895V13.1821H130.81V16.5015C130.81 16.7557 130.865 16.9437 130.976 17.0654C131.087 17.1836 131.263 17.2427 131.502 17.2427C131.653 17.2427 131.782 17.2337 131.889 17.2158V18C131.767 18.0286 131.57 18.043 131.298 18.043C130.786 18.043 130.421 17.9284 130.203 17.6992C129.984 17.4701 129.875 17.0869 129.875 16.5498V13.1821H129.042V12.4141H129.875V11.0659ZM135.192 13.1284C134.759 13.1284 134.399 13.2788 134.113 13.5796C133.83 13.8768 133.674 14.2599 133.645 14.729H136.68C136.669 14.2563 136.528 13.8714 136.256 13.5742C135.983 13.277 135.629 13.1284 135.192 13.1284ZM136.658 16.3994H137.577C137.495 16.8936 137.237 17.3 136.803 17.6187C136.374 17.9373 135.856 18.0967 135.251 18.0967C134.453 18.0967 133.824 17.8389 133.366 17.3232C132.908 16.8076 132.678 16.1094 132.678 15.2285C132.678 14.3548 132.908 13.6512 133.366 13.1177C133.828 12.5841 134.442 12.3174 135.208 12.3174C135.96 12.3174 136.555 12.5698 136.991 13.0747C137.428 13.5796 137.647 14.2563 137.647 15.105V15.4595H133.64V15.5132C133.64 16.0503 133.787 16.48 134.08 16.8022C134.374 17.1245 134.771 17.2856 135.273 17.2856C135.624 17.2856 135.923 17.2051 136.17 17.0439C136.417 16.8828 136.58 16.668 136.658 16.3994ZM143.453 14.2456H142.54C142.468 13.9233 142.309 13.6584 142.062 13.4507C141.818 13.243 141.501 13.1392 141.111 13.1392C140.624 13.1392 140.232 13.3271 139.935 13.7031C139.637 14.0755 139.489 14.5768 139.489 15.207C139.489 15.848 139.637 16.3529 139.935 16.7217C140.235 17.0905 140.631 17.2749 141.122 17.2749C141.498 17.2749 141.807 17.1818 142.051 16.9956C142.298 16.8058 142.463 16.5409 142.545 16.2007H143.463C143.392 16.7593 143.139 17.2158 142.706 17.5703C142.276 17.9212 141.746 18.0967 141.116 18.0967C140.336 18.0967 139.711 17.8389 139.242 17.3232C138.773 16.804 138.538 16.0986 138.538 15.207C138.538 14.3298 138.773 13.6297 139.242 13.1069C139.711 12.5806 140.332 12.3174 141.106 12.3174C141.772 12.3174 142.312 12.5054 142.728 12.8813C143.147 13.2573 143.388 13.7121 143.453 14.2456ZM144.844 11.0659H145.778V12.4141H146.863V13.1821H145.778V16.5015C145.778 16.7557 145.834 16.9437 145.945 17.0654C146.056 17.1836 146.231 17.2427 146.471 17.2427C146.621 17.2427 146.75 17.2337 146.858 17.2158V18C146.736 18.0286 146.539 18.043 146.267 18.043C145.755 18.043 145.39 17.9284 145.171 17.6992C144.953 17.4701 144.844 17.0869 144.844 16.5498V13.1821H144.011V12.4141H144.844V11.0659ZM148.13 18V12.4141H149.065V18H148.13ZM148.598 11.4741C148.44 11.4741 148.304 11.4168 148.19 11.3022C148.075 11.1877 148.018 11.0516 148.018 10.894C148.018 10.7329 148.075 10.5968 148.19 10.4858C148.304 10.3713 148.44 10.314 148.598 10.314C148.759 10.314 148.897 10.3713 149.011 10.4858C149.126 10.5968 149.183 10.7329 149.183 10.894C149.183 11.0516 149.126 11.1877 149.011 11.3022C148.897 11.4168 148.759 11.4741 148.598 11.4741ZM152.862 18.0967C152.082 18.0967 151.455 17.8371 150.982 17.3179C150.51 16.7951 150.273 16.0915 150.273 15.207C150.273 14.3226 150.51 13.6208 150.982 13.1016C151.455 12.5788 152.082 12.3174 152.862 12.3174C153.639 12.3174 154.264 12.5788 154.737 13.1016C155.209 13.6208 155.446 14.3226 155.446 15.207C155.446 16.0879 155.209 16.7897 154.737 17.3125C154.264 17.8353 153.639 18.0967 152.862 18.0967ZM151.664 16.7271C151.962 17.0923 152.361 17.2749 152.862 17.2749C153.363 17.2749 153.761 17.0941 154.055 16.7324C154.348 16.3672 154.495 15.8587 154.495 15.207C154.495 14.5553 154.348 14.0487 154.055 13.687C153.761 13.3218 153.363 13.1392 152.862 13.1392C152.361 13.1392 151.962 13.3218 151.664 13.687C151.371 14.0522 151.224 14.5589 151.224 15.207C151.224 15.8551 151.371 16.3618 151.664 16.7271ZM156.611 18V12.4141H157.492V13.3057H157.513C157.674 12.9941 157.905 12.7524 158.206 12.5806C158.507 12.4051 158.867 12.3174 159.286 12.3174C159.895 12.3174 160.369 12.5018 160.709 12.8706C161.049 13.2358 161.219 13.7371 161.219 14.3745V18H160.285V14.541C160.285 14.0863 160.177 13.7407 159.963 13.5044C159.748 13.2645 159.427 13.1445 159.001 13.1445C158.561 13.1445 158.208 13.2878 157.943 13.5742C157.678 13.8607 157.546 14.2402 157.546 14.7129V18H156.611Z" fill="#0D0D0D"/>
<g clip-path="url(#clip0_224_678)">
<path d="M10.5 14L12.8333 16.3334L17.5 11.6667" stroke="#0D0D0D" stroke-width="1.5" stroke-linecap="round" stroke-linejoin="round"/>
<path d="M14.0001 3.5C16.7253 5.911 20.282 7.16633 23.9168 7C24.446 8.80018 24.6079 10.6884 24.3929 12.5524C24.178 14.4164 23.5905 16.2181 22.6654 17.8506C21.7404 19.4831 20.4966 20.9129 19.008 22.0552C17.5194 23.1975 15.8164 24.0289 14.0001 24.5C12.1839 24.0289 10.4809 23.1975 8.99227 22.0552C7.50368 20.9129 6.25989 19.4831 5.33483 17.8506C4.40976 16.2181 3.82229 14.4164 3.60732 12.5524C3.39235 10.6884 3.55427 8.80018 4.08347 7C7.71825 7.16633 11.275 5.911 14.0001 3.5" stroke="#0D0D0D" stroke-width="1.5" stroke-linecap="round" stroke-linejoin="round"/>
</g>
<defs>
<clipPath id="clip0_224_678">
<rect width="28" height="28" fill="white"/>
</clipPath>
</defs>
</svg>
