<svg width="119" height="28" viewBox="0 0 119 28" fill="none" xmlns="http://www.w3.org/2000/svg">
<path d="M49.79 18L49.0112 15.7817H45.9282L45.1494 18H44.1343L46.9917 10.2495H47.9478L50.8052 18H49.79ZM47.4536 11.4258L46.2129 14.96H48.7266L47.4858 11.4258H47.4536ZM55.9182 12.4141L53.8665 18H52.9104L50.8533 12.4141H51.8362L53.3777 17.0063H53.3992L54.9461 12.4141H55.9182ZM56.9224 18V12.4141H57.857V18H56.9224ZM57.3897 11.4741C57.2322 11.4741 57.0961 11.4168 56.9815 11.3022C56.8669 11.1877 56.8096 11.0516 56.8096 10.894C56.8096 10.7329 56.8669 10.5968 56.9815 10.4858C57.0961 10.3713 57.2322 10.314 57.3897 10.314C57.5508 10.314 57.6887 10.3713 57.8033 10.4858C57.9179 10.5968 57.9752 10.7329 57.9752 10.894C57.9752 11.0516 57.9179 11.1877 57.8033 11.3022C57.6887 11.4168 57.5508 11.4741 57.3897 11.4741ZM61.1815 17.3018C61.6219 17.3018 61.9907 17.1657 62.2879 16.8936C62.5887 16.6178 62.7391 16.2795 62.7391 15.8784V15.4219L61.2459 15.5132C60.87 15.5382 60.5781 15.6296 60.3704 15.7871C60.1663 15.9447 60.0643 16.1559 60.0643 16.4209C60.0643 16.6859 60.1663 16.8989 60.3704 17.0601C60.5746 17.2212 60.8449 17.3018 61.1815 17.3018ZM60.972 18.0967C60.417 18.0967 59.9676 17.9427 59.6239 17.6348C59.2837 17.3268 59.1136 16.9222 59.1136 16.4209C59.1136 15.9411 59.2891 15.5579 59.64 15.2715C59.9945 14.985 60.494 14.8239 61.1385 14.7881L62.7391 14.6968V14.2295C62.7391 13.8893 62.6317 13.6226 62.4168 13.4292C62.202 13.2358 61.9012 13.1392 61.5145 13.1392C61.16 13.1392 60.8718 13.2179 60.6497 13.3755C60.4277 13.5295 60.2863 13.7461 60.2254 14.0254H59.3231C59.3553 13.5277 59.5702 13.1195 59.9676 12.8008C60.3687 12.4785 60.8914 12.3174 61.536 12.3174C62.1912 12.3174 62.7105 12.4821 63.0936 12.8115C63.4803 13.141 63.6737 13.5832 63.6737 14.1382V18H62.7874V17.0386H62.766C62.5977 17.3573 62.3506 17.6133 62.0247 17.8066C61.6989 18 61.348 18.0967 60.972 18.0967ZM67.8575 18.0967C67.4565 18.0967 67.0984 18.0054 66.7833 17.8228C66.4718 17.6401 66.2247 17.3841 66.0421 17.0547H66.0206V18H65.129V10.2495H66.0636V13.3486H66.0851C66.2605 13.0264 66.504 12.7739 66.8155 12.5913C67.1307 12.4087 67.4834 12.3174 67.8737 12.3174C68.5791 12.3174 69.1484 12.5806 69.5817 13.1069C70.0149 13.6333 70.2316 14.3333 70.2316 15.207C70.2316 16.0843 70.0149 16.7861 69.5817 17.3125C69.1484 17.8353 68.5737 18.0967 67.8575 18.0967ZM67.6749 13.1392C67.1987 13.1392 66.8102 13.3307 66.5094 13.7139C66.2086 14.0934 66.0582 14.5911 66.0582 15.207C66.0582 15.8265 66.2086 16.326 66.5094 16.7056C66.8102 17.0851 67.1987 17.2749 67.6749 17.2749C68.1691 17.2749 68.5594 17.0905 68.8458 16.7217C69.1323 16.3493 69.2755 15.8444 69.2755 15.207C69.2755 14.5732 69.1323 14.0701 68.8458 13.6978C68.5594 13.3254 68.1691 13.1392 67.6749 13.1392ZM71.4506 18V10.2495H72.3852V18H71.4506ZM76.1071 13.1284C75.6738 13.1284 75.314 13.2788 75.0275 13.5796C74.7446 13.8768 74.5889 14.2599 74.5602 14.729H77.5949C77.5842 14.2563 77.4427 13.8714 77.1706 13.5742C76.8985 13.277 76.544 13.1284 76.1071 13.1284ZM77.5734 16.3994H78.4919C78.4095 16.8936 78.1517 17.3 77.7184 17.6187C77.2887 17.9373 76.7713 18.0967 76.1662 18.0967C75.3677 18.0967 74.7393 17.8389 74.2809 17.3232C73.8226 16.8076 73.5934 16.1094 73.5934 15.2285C73.5934 14.3548 73.8226 13.6512 74.2809 13.1177C74.7429 12.5841 75.3569 12.3174 76.1232 12.3174C76.8752 12.3174 77.4696 12.5698 77.9064 13.0747C78.3433 13.5796 78.5617 14.2563 78.5617 15.105V15.4595H74.5549V15.5132C74.5549 16.0503 74.7017 16.48 74.9953 16.8022C75.2889 17.1245 75.6864 17.2856 76.1877 17.2856C76.5386 17.2856 76.8376 17.2051 77.0846 17.0439C77.3317 16.8828 77.4946 16.668 77.5734 16.3994ZM82.5037 11.0659H83.4382V12.4141H84.5232V13.1821H83.4382V16.5015C83.4382 16.7557 83.4937 16.9437 83.6047 17.0654C83.7157 17.1836 83.8912 17.2427 84.1311 17.2427C84.2815 17.2427 84.4104 17.2337 84.5178 17.2158V18C84.3961 18.0286 84.1991 18.043 83.927 18.043C83.4149 18.043 83.0497 17.9284 82.8313 17.6992C82.6129 17.4701 82.5037 17.0869 82.5037 16.5498V13.1821H81.6711V12.4141H82.5037V11.0659ZM87.896 18.0967C87.1154 18.0967 86.4888 17.8371 86.0161 17.3179C85.5435 16.7951 85.3071 16.0915 85.3071 15.207C85.3071 14.3226 85.5435 13.6208 86.0161 13.1016C86.4888 12.5788 87.1154 12.3174 87.896 12.3174C88.673 12.3174 89.2979 12.5788 89.7705 13.1016C90.2432 13.6208 90.4795 14.3226 90.4795 15.207C90.4795 16.0879 90.2432 16.7897 89.7705 17.3125C89.2979 17.8353 88.673 18.0967 87.896 18.0967ZM86.6983 16.7271C86.9955 17.0923 87.3947 17.2749 87.896 17.2749C88.3973 17.2749 88.7948 17.0941 89.0884 16.7324C89.382 16.3672 89.5288 15.8587 89.5288 15.207C89.5288 14.5553 89.382 14.0487 89.0884 13.687C88.7948 13.3218 88.3973 13.1392 87.896 13.1392C87.3947 13.1392 86.9955 13.3218 86.6983 13.687C86.4046 14.0522 86.2578 14.5589 86.2578 15.207C86.2578 15.8551 86.4046 16.3618 86.6983 16.7271ZM96.4356 18.0967C95.655 18.0967 95.0284 17.8371 94.5557 17.3179C94.0831 16.7951 93.8468 16.0915 93.8468 15.207C93.8468 14.3226 94.0831 13.6208 94.5557 13.1016C95.0284 12.5788 95.655 12.3174 96.4356 12.3174C97.2126 12.3174 97.8375 12.5788 98.3101 13.1016C98.7828 13.6208 99.0191 14.3226 99.0191 15.207C99.0191 16.0879 98.7828 16.7897 98.3101 17.3125C97.8375 17.8353 97.2126 18.0967 96.4356 18.0967ZM95.2379 16.7271C95.5351 17.0923 95.9343 17.2749 96.4356 17.2749C96.9369 17.2749 97.3344 17.0941 97.628 16.7324C97.9216 16.3672 98.0684 15.8587 98.0684 15.207C98.0684 14.5553 97.9216 14.0487 97.628 13.687C97.3344 13.3218 96.9369 13.1392 96.4356 13.1392C95.9343 13.1392 95.5351 13.3218 95.2379 13.687C94.9442 14.0522 94.7974 14.5589 94.7974 15.207C94.7974 15.8551 94.9442 16.3618 95.2379 16.7271ZM100.184 18V12.4141H101.065V13.3271H101.087C101.18 13.0156 101.346 12.7703 101.586 12.5913C101.83 12.4087 102.114 12.3174 102.44 12.3174C102.515 12.3174 102.641 12.3299 102.816 12.355V13.2627C102.716 13.2269 102.55 13.209 102.317 13.209C101.955 13.209 101.665 13.3289 101.447 13.5688C101.228 13.8088 101.119 14.1257 101.119 14.5195V18H100.184ZM105.647 18.0967C104.93 18.0967 104.352 17.8335 103.912 17.3071C103.475 16.7808 103.256 16.0807 103.256 15.207C103.256 14.3369 103.475 13.6387 103.912 13.1123C104.349 12.5824 104.92 12.3174 105.625 12.3174C106.019 12.3174 106.372 12.4069 106.683 12.5859C106.995 12.765 107.235 13.0103 107.403 13.3218H107.424V10.2495H108.359V18H107.467V17.0547H107.451C107.269 17.3805 107.022 17.6366 106.71 17.8228C106.399 18.0054 106.044 18.0967 105.647 18.0967ZM105.824 13.1392C105.33 13.1392 104.938 13.3271 104.648 13.7031C104.358 14.0755 104.213 14.5768 104.213 15.207C104.213 15.8408 104.358 16.3439 104.648 16.7163C104.938 17.0887 105.33 17.2749 105.824 17.2749C106.307 17.2749 106.696 17.0869 106.989 16.7109C107.283 16.3314 107.43 15.8301 107.43 15.207C107.43 14.584 107.281 14.0845 106.984 13.7085C106.69 13.3289 106.304 13.1392 105.824 13.1392ZM112.081 13.1284C111.648 13.1284 111.288 13.2788 111.001 13.5796C110.719 13.8768 110.563 14.2599 110.534 14.729H113.569C113.558 14.2563 113.417 13.8714 113.144 13.5742C112.872 13.277 112.518 13.1284 112.081 13.1284ZM113.547 16.3994H114.466C114.383 16.8936 114.126 17.3 113.692 17.6187C113.263 17.9373 112.745 18.0967 112.14 18.0967C111.342 18.0967 110.713 17.8389 110.255 17.3232C109.796 16.8076 109.567 16.1094 109.567 15.2285C109.567 14.3548 109.796 13.6512 110.255 13.1177C110.717 12.5841 111.331 12.3174 112.097 12.3174C112.849 12.3174 113.443 12.5698 113.88 13.0747C114.317 13.5796 114.536 14.2563 114.536 15.105V15.4595H110.529V15.5132C110.529 16.0503 110.676 16.48 110.969 16.8022C111.263 17.1245 111.66 17.2856 112.162 17.2856C112.512 17.2856 112.811 17.2051 113.059 17.0439C113.306 16.8828 113.469 16.668 113.547 16.3994ZM115.701 18V12.4141H116.582V13.3271H116.603C116.696 13.0156 116.863 12.7703 117.103 12.5913C117.346 12.4087 117.631 12.3174 117.957 12.3174C118.032 12.3174 118.157 12.3299 118.333 12.355V13.2627C118.232 13.2269 118.066 13.209 117.833 13.209C117.472 13.209 117.182 13.3289 116.963 13.5688C116.745 13.8088 116.635 14.1257 116.635 14.5195V18H115.701Z" fill="#0D0D0D"/>
<path d="M16.3335 3.5V8.16667C16.3335 8.47609 16.4564 8.77283 16.6752 8.99162C16.894 9.21042 17.1907 9.33333 17.5002 9.33333H22.1668" stroke="#0D0D0D" stroke-width="1.5" stroke-linecap="round" stroke-linejoin="round"/>
<path d="M19.8335 24.5H8.16683C7.54799 24.5 6.9545 24.2542 6.51691 23.8166C6.07933 23.379 5.8335 22.7855 5.8335 22.1667V5.83333C5.8335 5.21449 6.07933 4.621 6.51691 4.18342C6.9545 3.74583 7.54799 3.5 8.16683 3.5H16.3335L22.1668 9.33333V22.1667C22.1668 22.7855 21.921 23.379 21.4834 23.8166C21.0458 24.2542 20.4523 24.5 19.8335 24.5Z" stroke="#0D0D0D" stroke-width="1.5" stroke-linecap="round" stroke-linejoin="round"/>
<path d="M10.5 17.5L12.8333 19.8334L17.5 15.1667" stroke="#0D0D0D" stroke-width="1.5" stroke-linecap="round" stroke-linejoin="round"/>
</svg>
