<svg width="128" height="28" viewBox="0 0 128 28" fill="none" xmlns="http://www.w3.org/2000/svg">
<path d="M44.752 10.2495H47.3569C48.5063 10.2495 49.4033 10.5915 50.0479 11.2754C50.6924 11.9557 51.0146 12.9046 51.0146 14.1221C51.0146 15.3431 50.6924 16.2956 50.0479 16.9795C49.4069 17.6598 48.5099 18 47.3569 18H44.752V10.2495ZM45.7188 11.1196V17.1299H47.2925C48.1698 17.1299 48.8447 16.8721 49.3174 16.3564C49.79 15.8372 50.0264 15.096 50.0264 14.1328C50.0264 13.1624 49.79 12.4176 49.3174 11.8984C48.8483 11.3792 48.1733 11.1196 47.2925 11.1196H45.7188ZM54.5325 13.1284C54.0992 13.1284 53.7394 13.2788 53.4529 13.5796C53.17 13.8768 53.0143 14.2599 52.9856 14.729H56.0203C56.0096 14.2563 55.8681 13.8714 55.596 13.5742C55.3238 13.277 54.9693 13.1284 54.5325 13.1284ZM55.9988 16.3994H56.9173C56.8349 16.8936 56.5771 17.3 56.1438 17.6187C55.7141 17.9373 55.1967 18.0967 54.5916 18.0967C53.7931 18.0967 53.1647 17.8389 52.7063 17.3232C52.248 16.8076 52.0188 16.1094 52.0188 15.2285C52.0188 14.3548 52.248 13.6512 52.7063 13.1177C53.1682 12.5841 53.7823 12.3174 54.5486 12.3174C55.3006 12.3174 55.895 12.5698 56.3318 13.0747C56.7687 13.5796 56.9871 14.2563 56.9871 15.105V15.4595H52.9803V15.5132C52.9803 16.0503 53.1271 16.48 53.4207 16.8022C53.7143 17.1245 54.1118 17.2856 54.6131 17.2856C54.964 17.2856 55.263 17.2051 55.51 17.0439C55.7571 16.8828 55.92 16.668 55.9988 16.3994ZM58.2007 18V10.2495H59.1353V18H58.2007ZM60.6659 18V12.4141H61.6004V18H60.6659ZM61.1331 11.4741C60.9756 11.4741 60.8395 11.4168 60.7249 11.3022C60.6104 11.1877 60.5531 11.0516 60.5531 10.894C60.5531 10.7329 60.6104 10.5968 60.7249 10.4858C60.8395 10.3713 60.9756 10.314 61.1331 10.314C61.2943 10.314 61.4321 10.3713 61.5467 10.4858C61.6613 10.5968 61.7186 10.7329 61.7186 10.894C61.7186 11.0516 61.6613 11.1877 61.5467 11.3022C61.4321 11.4168 61.2943 11.4741 61.1331 11.4741ZM67.6642 12.4141L65.6124 18H64.6564L62.5992 12.4141H63.5821L65.1237 17.0063H65.1451L66.692 12.4141H67.6642ZM70.6986 13.1284C70.2654 13.1284 69.9055 13.2788 69.619 13.5796C69.3362 13.8768 69.1804 14.2599 69.1518 14.729H72.1864C72.1757 14.2563 72.0342 13.8714 71.7621 13.5742C71.49 13.277 71.1355 13.1284 70.6986 13.1284ZM72.1649 16.3994H73.0834C73.001 16.8936 72.7432 17.3 72.31 17.6187C71.8803 17.9373 71.3629 18.0967 70.7577 18.0967C69.9592 18.0967 69.3308 17.8389 68.8725 17.3232C68.4141 16.8076 68.185 16.1094 68.185 15.2285C68.185 14.3548 68.4141 13.6512 68.8725 13.1177C69.3344 12.5841 69.9485 12.3174 70.7147 12.3174C71.4667 12.3174 72.0611 12.5698 72.4979 13.0747C72.9348 13.5796 73.1532 14.2563 73.1532 15.105V15.4595H69.1464V15.5132C69.1464 16.0503 69.2932 16.48 69.5868 16.8022C69.8804 17.1245 70.2779 17.2856 70.7792 17.2856C71.1301 17.2856 71.4291 17.2051 71.6762 17.0439C71.9232 16.8828 72.0862 16.668 72.1649 16.3994ZM74.3185 18V12.4141H75.1994V13.3271H75.2209C75.314 13.0156 75.4805 12.7703 75.7204 12.5913C75.9639 12.4087 76.2485 12.3174 76.5744 12.3174C76.6496 12.3174 76.7749 12.3299 76.9504 12.355V13.2627C76.8501 13.2269 76.6836 13.209 76.4509 13.209C76.0892 13.209 75.7992 13.3289 75.5807 13.5688C75.3623 13.8088 75.2531 14.1257 75.2531 14.5195V18H74.3185ZM78.395 20.0894C78.2303 20.0894 78.096 20.0786 77.9921 20.0571V19.2729C78.0781 19.2909 78.1998 19.2998 78.3574 19.2998C78.6188 19.2998 78.8282 19.23 78.9858 19.0903C79.1434 18.9543 79.2758 18.7233 79.3833 18.3975L79.5122 18.0054L77.4497 12.4141H78.4487L79.9956 17.0654H80.0117L81.5586 12.4141H82.5415L80.3447 18.3921C80.1048 19.0438 79.8452 19.4896 79.5659 19.7295C79.2902 19.9694 78.8999 20.0894 78.395 20.0894ZM86.0269 18V12.4141H86.9614V18H86.0269ZM86.4942 11.4741C86.3366 11.4741 86.2005 11.4168 86.086 11.3022C85.9714 11.1877 85.9141 11.0516 85.9141 10.894C85.9141 10.7329 85.9714 10.5968 86.086 10.4858C86.2005 10.3713 86.3366 10.314 86.4942 10.314C86.6553 10.314 86.7932 10.3713 86.9077 10.4858C87.0223 10.5968 87.0796 10.7329 87.0796 10.894C87.0796 11.0516 87.0223 11.1877 86.9077 11.3022C86.7932 11.4168 86.6553 11.4741 86.4942 11.4741ZM88.4437 18V12.4141H89.3245V13.3057H89.346C89.5071 12.9941 89.7381 12.7524 90.0389 12.5806C90.3396 12.4051 90.6995 12.3174 91.1185 12.3174C91.7272 12.3174 92.2016 12.5018 92.5418 12.8706C92.882 13.2358 93.0521 13.7371 93.0521 14.3745V18H92.1175V14.541C92.1175 14.0863 92.0101 13.7407 91.7952 13.5044C91.5804 13.2645 91.2599 13.1445 90.8338 13.1445C90.3934 13.1445 90.0407 13.2878 89.7757 13.5742C89.5107 13.8607 89.3782 14.2402 89.3782 14.7129V18H88.4437ZM97.4076 18L100.915 11.1304V11.1089H96.7416V10.2495H101.871V11.1465L98.4227 18H97.4076ZM107.768 18.0967C107.052 18.0967 106.474 17.8335 106.033 17.3071C105.596 16.7808 105.378 16.0807 105.378 15.207C105.378 14.3369 105.596 13.6387 106.033 13.1123C106.47 12.5824 107.041 12.3174 107.747 12.3174C108.14 12.3174 108.493 12.4069 108.805 12.5859C109.116 12.765 109.356 13.0103 109.524 13.3218H109.546V10.2495H110.48V18H109.589V17.0547H109.573C109.39 17.3805 109.143 17.6366 108.831 17.8228C108.52 18.0054 108.165 18.0967 107.768 18.0967ZM107.945 13.1392C107.451 13.1392 107.059 13.3271 106.769 13.7031C106.479 14.0755 106.334 14.5768 106.334 15.207C106.334 15.8408 106.479 16.3439 106.769 16.7163C107.059 17.0887 107.451 17.2749 107.945 17.2749C108.429 17.2749 108.817 17.0869 109.111 16.7109C109.404 16.3314 109.551 15.8301 109.551 15.207C109.551 14.584 109.403 14.0845 109.105 13.7085C108.812 13.3289 108.425 13.1392 107.945 13.1392ZM113.805 17.3018C114.245 17.3018 114.614 17.1657 114.911 16.8936C115.212 16.6178 115.363 16.2795 115.363 15.8784V15.4219L113.869 15.5132C113.493 15.5382 113.202 15.6296 112.994 15.7871C112.79 15.9447 112.688 16.1559 112.688 16.4209C112.688 16.6859 112.79 16.8989 112.994 17.0601C113.198 17.2212 113.468 17.3018 113.805 17.3018ZM113.595 18.0967C113.04 18.0967 112.591 17.9427 112.247 17.6348C111.907 17.3268 111.737 16.9222 111.737 16.4209C111.737 15.9411 111.912 15.5579 112.263 15.2715C112.618 14.985 113.117 14.8239 113.762 14.7881L115.363 14.6968V14.2295C115.363 13.8893 115.255 13.6226 115.04 13.4292C114.825 13.2358 114.525 13.1392 114.138 13.1392C113.783 13.1392 113.495 13.2179 113.273 13.3755C113.051 13.5295 112.91 13.7461 112.849 14.0254H111.946C111.979 13.5277 112.194 13.1195 112.591 12.8008C112.992 12.4785 113.515 12.3174 114.159 12.3174C114.815 12.3174 115.334 12.4821 115.717 12.8115C116.104 13.141 116.297 13.5832 116.297 14.1382V18H115.411V17.0386H115.389C115.221 17.3573 114.974 17.6133 114.648 17.8066C114.322 18 113.971 18.0967 113.595 18.0967ZM118.166 20.0894C118.001 20.0894 117.867 20.0786 117.763 20.0571V19.2729C117.849 19.2909 117.971 19.2998 118.128 19.2998C118.39 19.2998 118.599 19.23 118.757 19.0903C118.914 18.9543 119.047 18.7233 119.154 18.3975L119.283 18.0054L117.221 12.4141H118.22L119.767 17.0654H119.783L121.33 12.4141H122.312L120.116 18.3921C119.876 19.0438 119.616 19.4896 119.337 19.7295C119.061 19.9694 118.671 20.0894 118.166 20.0894ZM123.177 13.9556C123.177 13.4757 123.37 13.0837 123.757 12.7793C124.147 12.4714 124.649 12.3174 125.261 12.3174C125.837 12.3174 126.317 12.4714 126.7 12.7793C127.084 13.0872 127.286 13.4775 127.307 13.9502H126.416C126.384 13.6781 126.262 13.465 126.051 13.311C125.843 13.1571 125.569 13.0801 125.229 13.0801C124.889 13.0801 124.615 13.1571 124.407 13.311C124.199 13.4614 124.095 13.6602 124.095 13.9072C124.095 14.2868 124.405 14.5553 125.025 14.7129L125.889 14.9224C126.452 15.0656 126.847 15.2518 127.076 15.481C127.309 15.7065 127.426 16.0252 127.426 16.437C127.426 16.924 127.218 17.3232 126.802 17.6348C126.387 17.9427 125.854 18.0967 125.202 18.0967C124.593 18.0967 124.09 17.9463 123.693 17.6455C123.299 17.3411 123.077 16.9401 123.027 16.4424H123.961C124.065 17.0368 124.498 17.334 125.261 17.334C125.637 17.334 125.934 17.2606 126.153 17.1138C126.375 16.9634 126.486 16.7611 126.486 16.5068C126.486 16.3063 126.419 16.147 126.287 16.0288C126.158 15.9106 125.938 15.8104 125.626 15.728L124.643 15.4756C123.666 15.2249 123.177 14.7183 123.177 13.9556Z" fill="#0D0D0D"/>
<g clip-path="url(#clip0_224_664)">
<path d="M8.16683 22.1667C9.45549 22.1667 10.5002 21.122 10.5002 19.8333C10.5002 18.5447 9.45549 17.5 8.16683 17.5C6.87817 17.5 5.8335 18.5447 5.8335 19.8333C5.8335 21.122 6.87817 22.1667 8.16683 22.1667Z" stroke="#0D0D0D" stroke-width="1.5" stroke-linecap="round" stroke-linejoin="round"/>
<path d="M19.8333 22.1667C21.122 22.1667 22.1667 21.122 22.1667 19.8333C22.1667 18.5447 21.122 17.5 19.8333 17.5C18.5447 17.5 17.5 18.5447 17.5 19.8333C17.5 21.122 18.5447 22.1667 19.8333 22.1667Z" stroke="#0D0D0D" stroke-width="1.5" stroke-linecap="round" stroke-linejoin="round"/>
<path d="M5.8335 19.8333H3.50016V15.1666M2.3335 5.83331H15.1668V19.8333M10.5002 19.8333H17.5002M22.1668 19.8333H24.5002V12.8333M24.5002 12.8333H15.1668M24.5002 12.8333L21.0002 6.99998H15.1668" stroke="#0D0D0D" stroke-width="1.5" stroke-linecap="round" stroke-linejoin="round"/>
<path d="M3.5 10.5H8.16667" stroke="#0D0D0D" stroke-width="1.5" stroke-linecap="round" stroke-linejoin="round"/>
</g>
<defs>
<clipPath id="clip0_224_664">
<rect width="28" height="28" fill="white"/>
</clipPath>
</defs>
</svg>
