<svg width="108" height="28" viewBox="0 0 108 28" fill="none" xmlns="http://www.w3.org/2000/svg">
<path d="M47.6792 18H46.7124V11.1196H44.2686V10.2495H50.123V11.1196H47.6792V18ZM49.9832 18V12.4141H50.864V13.3271H50.8855C50.9786 13.0156 51.1451 12.7703 51.385 12.5913C51.6285 12.4087 51.9132 12.3174 52.239 12.3174C52.3142 12.3174 52.4396 12.3299 52.615 12.355V13.2627C52.5148 13.2269 52.3483 13.209 52.1155 13.209C51.7539 13.209 51.4638 13.3289 51.2454 13.5688C51.027 13.8088 50.9178 14.1257 50.9178 14.5195V18H49.9832ZM58.1846 12.4141V18H57.2984V17.0923H57.2769C56.9296 17.7619 56.3388 18.0967 55.5045 18.0967C54.8993 18.0967 54.4249 17.9141 54.0811 17.5488C53.7409 17.18 53.5709 16.6769 53.5709 16.0396V12.4141H54.5054V15.873C54.5054 16.804 54.9351 17.2695 55.7945 17.2695C56.2457 17.2695 56.6002 17.1281 56.858 16.8452C57.1194 16.5588 57.2501 16.1756 57.2501 15.6958V12.4141H58.1846ZM59.5218 13.9556C59.5218 13.4757 59.7152 13.0837 60.1019 12.7793C60.4922 12.4714 60.9935 12.3174 61.6058 12.3174C62.1823 12.3174 62.6621 12.4714 63.0453 12.7793C63.4284 13.0872 63.6307 13.4775 63.6522 13.9502H62.7606C62.7284 13.6781 62.6066 13.465 62.3954 13.311C62.1877 13.1571 61.9137 13.0801 61.5736 13.0801C61.2334 13.0801 60.9595 13.1571 60.7518 13.311C60.5441 13.4614 60.4403 13.6602 60.4403 13.9072C60.4403 14.2868 60.75 14.5553 61.3695 14.7129L62.2342 14.9224C62.7964 15.0656 63.1921 15.2518 63.4212 15.481C63.654 15.7065 63.7704 16.0252 63.7704 16.437C63.7704 16.924 63.5627 17.3232 63.1473 17.6348C62.7319 17.9427 62.1984 18.0967 61.5467 18.0967C60.938 18.0967 60.4349 17.9463 60.0374 17.6455C59.6436 17.3411 59.4216 16.9401 59.3714 16.4424H60.306C60.4098 17.0368 60.8431 17.334 61.6058 17.334C61.9818 17.334 62.279 17.2606 62.4974 17.1138C62.7194 16.9634 62.8304 16.7611 62.8304 16.5068C62.8304 16.3063 62.7642 16.147 62.6317 16.0288C62.5028 15.9106 62.2826 15.8104 61.971 15.728L60.9881 15.4756C60.0106 15.2249 59.5218 14.7183 59.5218 13.9556ZM65.2633 11.0659H66.1979V12.4141H67.2828V13.1821H66.1979V16.5015C66.1979 16.7557 66.2534 16.9437 66.3644 17.0654C66.4754 17.1836 66.6508 17.2427 66.8907 17.2427C67.0411 17.2427 67.17 17.2337 67.2775 17.2158V18C67.1557 18.0286 66.9588 18.043 66.6866 18.043C66.1746 18.043 65.8094 17.9284 65.5909 17.6992C65.3725 17.4701 65.2633 17.0869 65.2633 16.5498V13.1821H64.4308V12.4141H65.2633V11.0659ZM70.5805 13.1284C70.1472 13.1284 69.7873 13.2788 69.5009 13.5796C69.218 13.8768 69.0622 14.2599 69.0336 14.729H72.0683C72.0575 14.2563 71.9161 13.8714 71.6439 13.5742C71.3718 13.277 71.0173 13.1284 70.5805 13.1284ZM72.0468 16.3994H72.9652C72.8829 16.8936 72.6251 17.3 72.1918 17.6187C71.7621 17.9373 71.2447 18.0967 70.6396 18.0967C69.841 18.0967 69.2126 17.8389 68.7543 17.3232C68.296 16.8076 68.0668 16.1094 68.0668 15.2285C68.0668 14.3548 68.296 13.6512 68.7543 13.1177C69.2162 12.5841 69.8303 12.3174 70.5966 12.3174C71.3485 12.3174 71.9429 12.5698 72.3798 13.0747C72.8166 13.5796 73.0351 14.2563 73.0351 15.105V15.4595H69.0282V15.5132C69.0282 16.0503 69.175 16.48 69.4687 16.8022C69.7623 17.1245 70.1597 17.2856 70.661 17.2856C71.0119 17.2856 71.3109 17.2051 71.558 17.0439C71.8051 16.8828 71.968 16.668 72.0468 16.3994ZM76.3166 18.0967C75.6004 18.0967 75.0221 17.8335 74.5817 17.3071C74.1449 16.7808 73.9264 16.0807 73.9264 15.207C73.9264 14.3369 74.1449 13.6387 74.5817 13.1123C75.0186 12.5824 75.5897 12.3174 76.2951 12.3174C76.689 12.3174 77.0417 12.4069 77.3532 12.5859C77.6647 12.765 77.9046 13.0103 78.0729 13.3218H78.0944V10.2495H79.029V18H78.1374V17.0547H78.1213C77.9387 17.3805 77.6916 17.6366 77.3801 17.8228C77.0685 18.0054 76.714 18.0967 76.3166 18.0967ZM76.4938 13.1392C75.9997 13.1392 75.6076 13.3271 75.3176 13.7031C75.0275 14.0755 74.8825 14.5768 74.8825 15.207C74.8825 15.8408 75.0275 16.3439 75.3176 16.7163C75.6076 17.0887 75.9997 17.2749 76.4938 17.2749C76.9772 17.2749 77.3657 17.0869 77.6594 16.7109C77.953 16.3314 78.0998 15.8301 78.0998 15.207C78.0998 14.584 77.9512 14.0845 77.654 13.7085C77.3604 13.3289 76.9736 13.1392 76.4938 13.1392ZM82.8904 13.9556C82.8904 13.4757 83.0837 13.0837 83.4704 12.7793C83.8607 12.4714 84.362 12.3174 84.9744 12.3174C85.5509 12.3174 86.0307 12.4714 86.4138 12.7793C86.7969 13.0872 86.9993 13.4775 87.0207 13.9502H86.1291C86.0969 13.6781 85.9752 13.465 85.7639 13.311C85.5562 13.1571 85.2823 13.0801 84.9421 13.0801C84.602 13.0801 84.328 13.1571 84.1203 13.311C83.9127 13.4614 83.8088 13.6602 83.8088 13.9072C83.8088 14.2868 84.1186 14.5553 84.738 14.7129L85.6028 14.9224C86.1649 15.0656 86.5606 15.2518 86.7898 15.481C87.0225 15.7065 87.1389 16.0252 87.1389 16.437C87.1389 16.924 86.9312 17.3232 86.5159 17.6348C86.1005 17.9427 85.567 18.0967 84.9153 18.0967C84.3065 18.0967 83.8035 17.9463 83.406 17.6455C83.0121 17.3411 82.7901 16.9401 82.74 16.4424H83.6745C83.7784 17.0368 84.2117 17.334 84.9744 17.334C85.3503 17.334 85.6475 17.2606 85.866 17.1138C86.088 16.9634 86.199 16.7611 86.199 16.5068C86.199 16.3063 86.1327 16.147 86.0002 16.0288C85.8713 15.9106 85.6511 15.8104 85.3396 15.728L84.3567 15.4756C83.3791 15.2249 82.8904 14.7183 82.8904 13.9556ZM90.5708 13.1284C90.1376 13.1284 89.7777 13.2788 89.4912 13.5796C89.2084 13.8768 89.0526 14.2599 89.0239 14.729H92.0586C92.0479 14.2563 91.9064 13.8714 91.6343 13.5742C91.3622 13.277 91.0077 13.1284 90.5708 13.1284ZM92.0371 16.3994H92.9556C92.8732 16.8936 92.6154 17.3 92.1821 17.6187C91.7525 17.9373 91.235 18.0967 90.6299 18.0967C89.8314 18.0967 89.203 17.8389 88.7446 17.3232C88.2863 16.8076 88.0571 16.1094 88.0571 15.2285C88.0571 14.3548 88.2863 13.6512 88.7446 13.1177C89.2066 12.5841 89.8207 12.3174 90.5869 12.3174C91.3389 12.3174 91.9333 12.5698 92.3701 13.0747C92.807 13.5796 93.0254 14.2563 93.0254 15.105V15.4595H89.0186V15.5132C89.0186 16.0503 89.1654 16.48 89.459 16.8022C89.7526 17.1245 90.1501 17.2856 90.6514 17.2856C91.0023 17.2856 91.3013 17.2051 91.5484 17.0439C91.7954 16.8828 91.9584 16.668 92.0371 16.3994ZM94.2391 18V10.2495H95.1736V18H94.2391ZM96.7042 18V10.2495H97.6387V18H96.7042ZM101.361 13.1284C100.927 13.1284 100.568 13.2788 100.281 13.5796C99.9982 13.8768 99.8425 14.2599 99.8138 14.729H102.848C102.838 14.2563 102.696 13.8714 102.424 13.5742C102.152 13.277 101.798 13.1284 101.361 13.1284ZM102.827 16.3994H103.745C103.663 16.8936 103.405 17.3 102.972 17.6187C102.542 17.9373 102.025 18.0967 101.42 18.0967C100.621 18.0967 99.9929 17.8389 99.5345 17.3232C99.0762 16.8076 98.847 16.1094 98.847 15.2285C98.847 14.3548 99.0762 13.6512 99.5345 13.1177C99.9964 12.5841 100.611 12.3174 101.377 12.3174C102.129 12.3174 102.723 12.5698 103.16 13.0747C103.597 13.5796 103.815 14.2563 103.815 15.105V15.4595H99.8085V15.5132C99.8085 16.0503 99.9553 16.48 100.249 16.8022C100.543 17.1245 100.94 17.2856 101.441 17.2856C101.792 17.2856 102.091 17.2051 102.338 17.0439C102.585 16.8828 102.748 16.668 102.827 16.3994ZM104.981 18V12.4141H105.861V13.3271H105.883C105.976 13.0156 106.143 12.7703 106.382 12.5913C106.626 12.4087 106.911 12.3174 107.236 12.3174C107.312 12.3174 107.437 12.3299 107.612 12.355V13.2627C107.512 13.2269 107.346 13.209 107.113 13.209C106.751 13.209 106.461 13.3289 106.243 13.5688C106.024 13.8088 105.915 14.1257 105.915 14.5195V18H104.981Z" fill="#0D0D0D"/>
<g clip-path="url(#clip0_224_684)">
<path d="M18.6668 4.66669V11.6667M14.0002 4.66669V8.16669V4.66669ZM9.3335 4.66669V11.6667V4.66669Z" stroke="#0D0D0D" stroke-width="1.5" stroke-linecap="round" stroke-linejoin="round"/>
<path d="M14 21.5833L10.5 23.3333L11.0833 19.25L8.75 16.9166L12.25 16.3333L14 12.8333L15.75 16.3333L19.25 16.9166L16.9167 19.25L17.5 23.3333L14 21.5833Z" stroke="#0D0D0D" stroke-width="1.5" stroke-linecap="round" stroke-linejoin="round"/>
</g>
<defs>
<clipPath id="clip0_224_684">
<rect width="28" height="28" fill="white"/>
</clipPath>
</defs>
</svg>
